<svg xmlns="http://www.w3.org/2000/svg" xmlns:xlink="http://www.w3.org/1999/xlink" width="150" zoomAndPan="magnify" viewBox="0 0 112.5 30.000001" height="40" preserveAspectRatio="xMidYMid meet" version="1.0"><defs><filter x="0%" y="0%" width="100%" height="100%" id="cd9779367b"><feColorMatrix values="0 0 0 0 1 0 0 0 0 1 0 0 0 0 1 0 0 0 1 0" color-interpolation-filters="sRGB"/></filter><g/><clipPath id="16605eb315"><path d="M 16 8 L 26.832031 8 L 26.832031 25.839844 L 16 25.839844 Z M 16 8 " clip-rule="nonzero"/></clipPath><clipPath id="4944b9cfc6"><path d="M 6.507812 4 L 17 4 L 17 21 L 6.507812 21 Z M 6.507812 4 " clip-rule="nonzero"/></clipPath><clipPath id="4f78e92f9b"><path d="M 78.675781 12.183594 L 87.511719 12.183594 L 87.511719 20.480469 L 78.675781 20.480469 Z M 78.675781 12.183594 " clip-rule="nonzero"/></clipPath><clipPath id="2bed3c132c"><path d="M 81.046875 18.796875 C 86.273438 12.773438 87.21875 13.28125 87.433594 13.574219 C 87.507812 13.789062 87.507812 14.082031 87.363281 14.371094 C 86.78125 15.097656 82.425781 15.460938 81.554688 16.332031 C 81.121094 16.839844 81.410156 17.566406 81.046875 17.855469 C 80.757812 18.144531 79.816406 18.289062 79.667969 18.074219 C 79.378906 17.636719 82.28125 12.847656 83.296875 12.339844 C 83.804688 12.121094 84.386719 12.195312 84.605469 12.410156 C 84.894531 12.703125 85.039062 13.5 84.894531 13.71875 C 84.675781 14.007812 83.371094 14.226562 83.082031 13.933594 C 82.863281 13.71875 82.933594 12.703125 83.226562 12.410156 C 83.445312 12.195312 84.242188 12.195312 84.53125 12.339844 C 84.824219 12.554688 84.96875 13.066406 84.894531 13.644531 C 84.675781 14.953125 81.773438 19.378906 80.613281 19.816406 C 80.03125 20.03125 79.378906 19.742188 79.089844 19.453125 C 78.796875 19.160156 78.726562 18.507812 78.726562 17.925781 C 78.796875 17.203125 78.945312 16.039062 79.597656 15.242188 C 80.613281 14.082031 84.316406 12.703125 85.546875 12.554688 C 85.984375 12.484375 86.566406 12.628906 86.566406 12.773438 C 86.636719 12.917969 85.332031 13.425781 85.332031 13.425781 C 85.332031 13.425781 86.054688 12.773438 86.417969 12.773438 C 86.78125 12.773438 87.363281 13.136719 87.433594 13.574219 C 87.582031 14.734375 83.878906 19.667969 82.574219 20.324219 C 82.066406 20.539062 81.410156 20.46875 81.121094 20.25 C 80.902344 19.960938 81.046875 18.796875 81.046875 18.796875 " clip-rule="nonzero"/></clipPath><mask id="bc4dce086c"><g filter="url(#cd9779367b)"><rect x="-11.25" width="135" fill="#000000" y="-3" height="36.000001" fill-opacity="0.01"/></g></mask><clipPath id="d062cd0fda"><path d="M 0.683594 0.183594 L 9.511719 0.183594 L 9.511719 8.480469 L 0.683594 8.480469 Z M 0.683594 0.183594 " clip-rule="nonzero"/></clipPath><clipPath id="e68cb2cf77"><path d="M 3.046875 6.796875 C 8.273438 0.773438 9.21875 1.28125 9.433594 1.574219 C 9.507812 1.789062 9.507812 2.082031 9.363281 2.371094 C 8.78125 3.097656 4.425781 3.460938 3.554688 4.332031 C 3.121094 4.839844 3.410156 5.566406 3.046875 5.855469 C 2.757812 6.144531 1.816406 6.289062 1.667969 6.074219 C 1.378906 5.636719 4.28125 0.847656 5.296875 0.339844 C 5.804688 0.121094 6.386719 0.195312 6.605469 0.410156 C 6.894531 0.703125 7.039062 1.5 6.894531 1.71875 C 6.675781 2.007812 5.371094 2.226562 5.082031 1.933594 C 4.863281 1.71875 4.933594 0.703125 5.226562 0.410156 C 5.445312 0.195312 6.242188 0.195312 6.53125 0.339844 C 6.824219 0.554688 6.96875 1.066406 6.894531 1.644531 C 6.675781 2.953125 3.773438 7.378906 2.613281 7.816406 C 2.03125 8.03125 1.378906 7.742188 1.089844 7.453125 C 0.796875 7.160156 0.726562 6.507812 0.726562 5.925781 C 0.796875 5.203125 0.945312 4.039062 1.597656 3.242188 C 2.613281 2.082031 6.316406 0.703125 7.546875 0.554688 C 7.984375 0.484375 8.566406 0.628906 8.566406 0.773438 C 8.636719 0.917969 7.332031 1.425781 7.332031 1.425781 C 7.332031 1.425781 8.054688 0.773438 8.417969 0.773438 C 8.78125 0.773438 9.363281 1.136719 9.433594 1.574219 C 9.582031 2.734375 5.878906 7.667969 4.574219 8.324219 C 4.066406 8.539062 3.410156 8.46875 3.121094 8.25 C 2.902344 7.960938 3.046875 6.796875 3.046875 6.796875 " clip-rule="nonzero"/></clipPath><clipPath id="ba5552460a"><rect x="0" width="10" y="0" height="9"/></clipPath><clipPath id="31bb155ace"><path d="M 82.898438 12.304688 L 84.972656 12.304688 L 84.972656 14.074219 L 82.898438 14.074219 Z M 82.898438 12.304688 " clip-rule="nonzero"/></clipPath><clipPath id="d4040304d3"><path d="M 84.96875 12.917969 C 84.023438 14.371094 83.152344 14.152344 83.007812 13.789062 C 82.789062 13.5 82.933594 12.628906 83.226562 12.410156 C 83.515625 12.195312 84.675781 12.484375 84.675781 12.484375 " clip-rule="nonzero"/></clipPath><mask id="50c73b0c37"><g filter="url(#cd9779367b)"><rect x="-11.25" width="135" fill="#000000" y="-3" height="36.000001" fill-opacity="0.01"/></g></mask><clipPath id="a429c79771"><path d="M 0.898438 0.304688 L 2.972656 0.304688 L 2.972656 2.074219 L 0.898438 2.074219 Z M 0.898438 0.304688 " clip-rule="nonzero"/></clipPath><clipPath id="746e08fbd0"><path d="M 2.96875 0.917969 C 2.023438 2.371094 1.152344 2.152344 1.007812 1.789062 C 0.789062 1.5 0.933594 0.628906 1.226562 0.410156 C 1.515625 0.195312 2.675781 0.484375 2.675781 0.484375 " clip-rule="nonzero"/></clipPath><clipPath id="fa34acbfb5"><rect x="0" width="3" y="0" height="3"/></clipPath></defs><g clip-path="url(#16605eb315)"><path fill="#1570ef" d="M 21.910156 16.820312 L 24.863281 13.898438 C 24.863281 11.894531 24.355469 9.976562 23.429688 8.304688 L 16.554688 14.609375 L 16.554688 25.089844 L 17.863281 25.089844 C 22.457031 25.089844 26.210938 21.414062 26.210938 16.820312 Z M 21.910156 16.820312 " fill-opacity="1" fill-rule="nonzero"/></g><g clip-path="url(#4944b9cfc6)"><path fill="#53b1fd" d="M 11.28125 12.355469 L 8.332031 15.277344 C 8.332031 17.28125 8.835938 19.203125 9.765625 20.871094 L 16.636719 14.566406 L 16.636719 4.089844 L 15.332031 4.089844 C 10.734375 4.089844 6.980469 7.761719 6.980469 12.355469 Z M 11.28125 12.355469 " fill-opacity="1" fill-rule="nonzero"/></g><g clip-path="url(#4f78e92f9b)"><g clip-path="url(#2bed3c132c)"><g mask="url(#bc4dce086c)"><g transform="matrix(1, 0, 0, 1, 78, 12)"><g clip-path="url(#ba5552460a)"><g clip-path="url(#d062cd0fda)"><g clip-path="url(#e68cb2cf77)"><rect x="-102.75" width="162" fill="#e7191f" height="43.200001" y="-18.6" fill-opacity="1"/></g></g></g></g></g></g></g><g clip-path="url(#31bb155ace)"><g clip-path="url(#d4040304d3)"><g mask="url(#50c73b0c37)"><g transform="matrix(1, 0, 0, 1, 82, 12)"><g clip-path="url(#fa34acbfb5)"><g clip-path="url(#a429c79771)"><g clip-path="url(#746e08fbd0)"><rect x="-106.75" width="162" fill="#e7191f" height="43.200001" y="-18.6" fill-opacity="1"/></g></g></g></g></g></g></g><g fill="#313131" fill-opacity="1"><g transform="translate(30.506057, 18.679488)"><g><path d="M 0.5 -5.390625 C 0.5 -6.265625 0.664062 -7.082031 1 -7.84375 C 1.34375 -8.601562 1.804688 -9.257812 2.390625 -9.8125 C 2.972656 -10.363281 3.644531 -10.796875 4.40625 -11.109375 C 5.175781 -11.421875 5.988281 -11.578125 6.84375 -11.578125 C 7.300781 -11.578125 7.75 -11.523438 8.1875 -11.421875 C 8.632812 -11.328125 9.039062 -11.207031 9.40625 -11.0625 C 9.769531 -10.914062 10.070312 -10.753906 10.3125 -10.578125 C 10.5625 -10.398438 10.71875 -10.238281 10.78125 -10.09375 C 10.800781 -10.039062 10.816406 -9.953125 10.828125 -9.828125 C 10.847656 -9.710938 10.863281 -9.578125 10.875 -9.421875 C 10.894531 -9.273438 10.910156 -9.113281 10.921875 -8.9375 C 10.929688 -8.757812 10.9375 -8.59375 10.9375 -8.4375 C 10.9375 -8.226562 10.882812 -8.082031 10.78125 -8 C 10.6875 -7.925781 10.582031 -7.890625 10.46875 -7.890625 C 10.3125 -7.890625 10.195312 -7.960938 10.125 -8.109375 C 10.050781 -8.253906 9.972656 -8.429688 9.890625 -8.640625 C 9.804688 -8.847656 9.679688 -9.0625 9.515625 -9.28125 C 9.359375 -9.5 9.148438 -9.703125 8.890625 -9.890625 C 8.628906 -10.078125 8.320312 -10.226562 7.96875 -10.34375 C 7.625 -10.46875 7.234375 -10.53125 6.796875 -10.53125 C 6.140625 -10.53125 5.566406 -10.398438 5.078125 -10.140625 C 4.597656 -9.890625 4.203125 -9.546875 3.890625 -9.109375 C 3.578125 -8.679688 3.34375 -8.171875 3.1875 -7.578125 C 3.039062 -6.992188 2.96875 -6.367188 2.96875 -5.703125 C 2.96875 -5.054688 3.046875 -4.445312 3.203125 -3.875 C 3.359375 -3.300781 3.59375 -2.796875 3.90625 -2.359375 C 4.226562 -1.929688 4.632812 -1.585938 5.125 -1.328125 C 5.625 -1.078125 6.207031 -0.953125 6.875 -0.953125 C 7.457031 -0.953125 7.953125 -1.050781 8.359375 -1.25 C 8.765625 -1.445312 9.101562 -1.660156 9.375 -1.890625 C 9.65625 -2.128906 9.890625 -2.34375 10.078125 -2.53125 C 10.265625 -2.726562 10.4375 -2.828125 10.59375 -2.828125 C 10.726562 -2.828125 10.84375 -2.785156 10.9375 -2.703125 C 11.03125 -2.617188 11.078125 -2.535156 11.078125 -2.453125 C 11.078125 -2.222656 10.957031 -1.953125 10.71875 -1.640625 C 10.488281 -1.328125 10.164062 -1.03125 9.75 -0.75 C 9.34375 -0.476562 8.847656 -0.242188 8.265625 -0.046875 C 7.691406 0.148438 7.0625 0.25 6.375 0.25 C 5.582031 0.25 4.828125 0.113281 4.109375 -0.15625 C 3.398438 -0.4375 2.773438 -0.820312 2.234375 -1.3125 C 1.703125 -1.8125 1.28125 -2.40625 0.96875 -3.09375 C 0.65625 -3.789062 0.5 -4.554688 0.5 -5.390625 Z M 0.5 -5.390625 "/></g></g></g><g fill="#313131" fill-opacity="1"><g transform="translate(42.441375, 18.679488)"><g><path d="M 0.328125 -10.921875 C 0.328125 -11.003906 0.414062 -11.09375 0.59375 -11.1875 C 0.769531 -11.289062 0.984375 -11.382812 1.234375 -11.46875 C 1.484375 -11.5625 1.738281 -11.640625 2 -11.703125 C 2.257812 -11.765625 2.460938 -11.796875 2.609375 -11.796875 C 2.671875 -11.796875 2.734375 -11.785156 2.796875 -11.765625 C 2.859375 -11.753906 2.914062 -11.71875 2.96875 -11.65625 C 3.03125 -11.59375 3.078125 -11.5 3.109375 -11.375 C 3.148438 -11.25 3.171875 -11.070312 3.171875 -10.84375 L 3.171875 -1.5 C 3.171875 -1.257812 3.207031 -1.09375 3.28125 -1 C 3.363281 -0.914062 3.445312 -0.851562 3.53125 -0.8125 C 3.625 -0.78125 3.707031 -0.742188 3.78125 -0.703125 C 3.863281 -0.660156 3.90625 -0.566406 3.90625 -0.421875 C 3.90625 -0.273438 3.851562 -0.164062 3.75 -0.09375 C 3.644531 -0.03125 3.515625 0 3.359375 0 L 0.96875 0 C 0.820312 0 0.695312 -0.03125 0.59375 -0.09375 C 0.488281 -0.164062 0.4375 -0.273438 0.4375 -0.421875 C 0.4375 -0.554688 0.472656 -0.644531 0.546875 -0.6875 C 0.628906 -0.738281 0.710938 -0.78125 0.796875 -0.8125 C 0.878906 -0.851562 0.957031 -0.914062 1.03125 -1 C 1.113281 -1.09375 1.15625 -1.257812 1.15625 -1.5 L 1.15625 -9.8125 C 1.15625 -10.007812 1.109375 -10.144531 1.015625 -10.21875 C 0.929688 -10.300781 0.835938 -10.363281 0.734375 -10.40625 C 0.640625 -10.457031 0.546875 -10.515625 0.453125 -10.578125 C 0.367188 -10.640625 0.328125 -10.753906 0.328125 -10.921875 Z M 0.328125 -10.921875 "/></g></g></g><g fill="#313131" fill-opacity="1"><g transform="translate(47.101019, 18.679488)"><g><path d="M 4.625 -6.71875 C 4.300781 -6.71875 4.007812 -6.644531 3.75 -6.5 C 3.488281 -6.351562 3.265625 -6.148438 3.078125 -5.890625 C 2.890625 -5.640625 2.75 -5.332031 2.65625 -4.96875 C 2.5625 -4.601562 2.515625 -4.207031 2.515625 -3.78125 L 2.515625 -3.6875 C 2.847656 -3.71875 3.207031 -3.773438 3.59375 -3.859375 C 3.976562 -3.941406 4.328125 -4.050781 4.640625 -4.1875 C 4.960938 -4.332031 5.226562 -4.519531 5.4375 -4.75 C 5.65625 -4.988281 5.765625 -5.28125 5.765625 -5.625 C 5.765625 -5.9375 5.671875 -6.195312 5.484375 -6.40625 C 5.304688 -6.613281 5.019531 -6.71875 4.625 -6.71875 Z M 0.375 -3.515625 C 0.375 -4.066406 0.457031 -4.585938 0.625 -5.078125 C 0.800781 -5.578125 1.070312 -6.007812 1.4375 -6.375 C 1.800781 -6.738281 2.257812 -7.023438 2.8125 -7.234375 C 3.363281 -7.453125 4.015625 -7.5625 4.765625 -7.5625 C 5.097656 -7.5625 5.4375 -7.519531 5.78125 -7.4375 C 6.132812 -7.363281 6.457031 -7.238281 6.75 -7.0625 C 7.050781 -6.894531 7.296875 -6.675781 7.484375 -6.40625 C 7.671875 -6.132812 7.765625 -5.804688 7.765625 -5.421875 C 7.765625 -4.929688 7.601562 -4.53125 7.28125 -4.21875 C 6.957031 -3.90625 6.539062 -3.648438 6.03125 -3.453125 C 5.53125 -3.265625 4.976562 -3.125 4.375 -3.03125 C 3.769531 -2.9375 3.1875 -2.875 2.625 -2.84375 C 2.675781 -2.539062 2.769531 -2.269531 2.90625 -2.03125 C 3.050781 -1.789062 3.222656 -1.585938 3.421875 -1.421875 C 3.628906 -1.265625 3.847656 -1.144531 4.078125 -1.0625 C 4.304688 -0.988281 4.539062 -0.953125 4.78125 -0.953125 C 5.039062 -0.953125 5.28125 -0.976562 5.5 -1.03125 C 5.71875 -1.09375 5.914062 -1.171875 6.09375 -1.265625 C 6.269531 -1.359375 6.429688 -1.457031 6.578125 -1.5625 C 6.722656 -1.675781 6.851562 -1.785156 6.96875 -1.890625 C 7.070312 -1.992188 7.164062 -2.070312 7.25 -2.125 C 7.332031 -2.1875 7.429688 -2.21875 7.546875 -2.21875 C 7.773438 -2.21875 7.890625 -2.097656 7.890625 -1.859375 C 7.890625 -1.671875 7.789062 -1.457031 7.59375 -1.21875 C 7.40625 -0.976562 7.144531 -0.757812 6.8125 -0.5625 C 6.476562 -0.363281 6.097656 -0.191406 5.671875 -0.046875 C 5.242188 0.0859375 4.789062 0.15625 4.3125 0.15625 C 3.757812 0.15625 3.242188 0.0625 2.765625 -0.125 C 2.285156 -0.3125 1.863281 -0.566406 1.5 -0.890625 C 1.144531 -1.210938 0.867188 -1.597656 0.671875 -2.046875 C 0.472656 -2.492188 0.375 -2.984375 0.375 -3.515625 Z M 0.375 -3.515625 "/></g></g></g><g fill="#313131" fill-opacity="1"><g transform="translate(55.785501, 18.679488)"><g><path d="M 5.453125 -4.21875 C 5.003906 -4.207031 4.597656 -4.140625 4.234375 -4.015625 C 3.878906 -3.898438 3.570312 -3.742188 3.3125 -3.546875 C 3.050781 -3.359375 2.851562 -3.144531 2.71875 -2.90625 C 2.582031 -2.664062 2.515625 -2.414062 2.515625 -2.15625 C 2.515625 -1.976562 2.546875 -1.800781 2.609375 -1.625 C 2.671875 -1.445312 2.765625 -1.289062 2.890625 -1.15625 C 3.015625 -1.019531 3.160156 -0.910156 3.328125 -0.828125 C 3.503906 -0.753906 3.695312 -0.71875 3.90625 -0.71875 C 4.175781 -0.71875 4.410156 -0.78125 4.609375 -0.90625 C 4.804688 -1.03125 4.96875 -1.179688 5.09375 -1.359375 C 5.21875 -1.546875 5.304688 -1.734375 5.359375 -1.921875 C 5.421875 -2.117188 5.453125 -2.285156 5.453125 -2.421875 Z M 0.890625 -6.34375 C 0.890625 -6.53125 0.972656 -6.695312 1.140625 -6.84375 C 1.316406 -7 1.546875 -7.128906 1.828125 -7.234375 C 2.109375 -7.335938 2.421875 -7.414062 2.765625 -7.46875 C 3.109375 -7.53125 3.453125 -7.5625 3.796875 -7.5625 C 4.484375 -7.5625 5.054688 -7.484375 5.515625 -7.328125 C 5.984375 -7.179688 6.363281 -6.976562 6.65625 -6.71875 C 6.945312 -6.46875 7.15625 -6.179688 7.28125 -5.859375 C 7.40625 -5.546875 7.46875 -5.21875 7.46875 -4.875 L 7.46875 -1.46875 C 7.46875 -1.28125 7.507812 -1.144531 7.59375 -1.0625 C 7.675781 -0.976562 7.757812 -0.914062 7.84375 -0.875 C 7.9375 -0.832031 8.023438 -0.785156 8.109375 -0.734375 C 8.191406 -0.679688 8.234375 -0.59375 8.234375 -0.46875 C 8.234375 -0.332031 8.191406 -0.21875 8.109375 -0.125 C 8.035156 -0.0390625 7.851562 0 7.5625 0 L 6.25 0 C 6.019531 0 5.851562 -0.0507812 5.75 -0.15625 C 5.65625 -0.257812 5.609375 -0.429688 5.609375 -0.671875 L 5.609375 -0.84375 L 5.546875 -0.84375 C 5.304688 -0.5 4.960938 -0.242188 4.515625 -0.078125 C 4.066406 0.078125 3.59375 0.15625 3.09375 0.15625 C 2.65625 0.15625 2.265625 0.09375 1.921875 -0.03125 C 1.585938 -0.15625 1.304688 -0.320312 1.078125 -0.53125 C 0.847656 -0.75 0.671875 -0.992188 0.546875 -1.265625 C 0.429688 -1.546875 0.375 -1.835938 0.375 -2.140625 C 0.375 -2.648438 0.53125 -3.09375 0.84375 -3.46875 C 1.15625 -3.84375 1.554688 -4.144531 2.046875 -4.375 C 2.535156 -4.601562 3.078125 -4.769531 3.671875 -4.875 C 4.273438 -4.988281 4.867188 -5.046875 5.453125 -5.046875 C 5.453125 -5.515625 5.316406 -5.894531 5.046875 -6.1875 C 4.785156 -6.476562 4.40625 -6.625 3.90625 -6.625 C 3.59375 -6.625 3.34375 -6.578125 3.15625 -6.484375 C 2.96875 -6.390625 2.800781 -6.285156 2.65625 -6.171875 C 2.507812 -6.066406 2.351562 -5.96875 2.1875 -5.875 C 2.03125 -5.78125 1.828125 -5.734375 1.578125 -5.734375 C 1.367188 -5.734375 1.203125 -5.785156 1.078125 -5.890625 C 0.953125 -5.992188 0.890625 -6.144531 0.890625 -6.34375 Z M 0.890625 -6.34375 "/></g></g></g><g fill="#313131" fill-opacity="1"><g transform="translate(64.779583, 18.679488)"><g><path d="M 0.359375 -6.453125 C 0.359375 -6.671875 0.445312 -6.828125 0.625 -6.921875 C 0.800781 -7.015625 1.007812 -7.113281 1.25 -7.21875 C 1.488281 -7.320312 1.703125 -7.40625 1.890625 -7.46875 C 2.078125 -7.53125 2.222656 -7.5625 2.328125 -7.5625 C 2.492188 -7.5625 2.625 -7.488281 2.71875 -7.34375 C 2.820312 -7.207031 2.90625 -7.039062 2.96875 -6.84375 C 3.03125 -6.65625 3.070312 -6.457031 3.09375 -6.25 C 3.125 -6.050781 3.144531 -5.882812 3.15625 -5.75 L 3.1875 -5.75 C 3.28125 -5.957031 3.394531 -6.171875 3.53125 -6.390625 C 3.675781 -6.609375 3.835938 -6.800781 4.015625 -6.96875 C 4.203125 -7.144531 4.394531 -7.285156 4.59375 -7.390625 C 4.800781 -7.503906 5.019531 -7.5625 5.25 -7.5625 C 5.570312 -7.5625 5.820312 -7.453125 6 -7.234375 C 6.1875 -7.023438 6.28125 -6.769531 6.28125 -6.46875 C 6.28125 -6.238281 6.222656 -6.035156 6.109375 -5.859375 C 6.003906 -5.691406 5.820312 -5.609375 5.5625 -5.609375 C 5.4375 -5.609375 5.285156 -5.648438 5.109375 -5.734375 C 4.941406 -5.816406 4.78125 -5.859375 4.625 -5.859375 C 4.445312 -5.859375 4.285156 -5.789062 4.140625 -5.65625 C 4.003906 -5.519531 3.878906 -5.347656 3.765625 -5.140625 C 3.648438 -4.929688 3.5625 -4.695312 3.5 -4.4375 C 3.4375 -4.175781 3.40625 -3.921875 3.40625 -3.671875 L 3.40625 -1.5 C 3.40625 -1.257812 3.441406 -1.09375 3.515625 -1 C 3.597656 -0.914062 3.679688 -0.851562 3.765625 -0.8125 C 3.859375 -0.78125 3.941406 -0.742188 4.015625 -0.703125 C 4.097656 -0.660156 4.140625 -0.566406 4.140625 -0.421875 C 4.140625 -0.273438 4.085938 -0.164062 3.984375 -0.09375 C 3.878906 -0.03125 3.75 0 3.59375 0 L 1.203125 0 C 1.046875 0 0.914062 -0.03125 0.8125 -0.09375 C 0.71875 -0.164062 0.671875 -0.273438 0.671875 -0.421875 C 0.671875 -0.554688 0.707031 -0.644531 0.78125 -0.6875 C 0.851562 -0.738281 0.929688 -0.78125 1.015625 -0.8125 C 1.109375 -0.851562 1.191406 -0.914062 1.265625 -1 C 1.347656 -1.09375 1.390625 -1.257812 1.390625 -1.5 L 1.390625 -4.734375 C 1.390625 -5.148438 1.332031 -5.441406 1.21875 -5.609375 C 1.113281 -5.785156 1 -5.90625 0.875 -5.96875 C 0.75 -6.039062 0.628906 -6.097656 0.515625 -6.140625 C 0.410156 -6.191406 0.359375 -6.296875 0.359375 -6.453125 Z M 0.359375 -6.453125 "/></g></g></g><g fill="#313131" fill-opacity="1"><g transform="translate(71.451639, 18.679488)"><g><path d="M 4.046875 -11.328125 C 4.191406 -11.328125 4.316406 -11.257812 4.421875 -11.125 C 4.523438 -11 4.648438 -10.738281 4.796875 -10.34375 C 4.890625 -10.101562 5.007812 -9.8125 5.15625 -9.46875 C 5.3125 -9.132812 5.488281 -8.726562 5.6875 -8.25 C 5.882812 -7.78125 6.097656 -7.234375 6.328125 -6.609375 C 6.566406 -5.984375 6.820312 -5.265625 7.09375 -4.453125 L 9.53125 -10.359375 C 9.625 -10.578125 9.695312 -10.75 9.75 -10.875 C 9.800781 -11.007812 9.851562 -11.109375 9.90625 -11.171875 C 9.96875 -11.234375 10.039062 -11.273438 10.125 -11.296875 C 10.207031 -11.316406 10.328125 -11.328125 10.484375 -11.328125 L 12.953125 -11.328125 C 13.296875 -11.328125 13.46875 -11.160156 13.46875 -10.828125 C 13.46875 -10.640625 13.410156 -10.519531 13.296875 -10.46875 C 13.191406 -10.414062 13.070312 -10.375 12.9375 -10.34375 C 12.8125 -10.3125 12.691406 -10.253906 12.578125 -10.171875 C 12.472656 -10.097656 12.421875 -9.9375 12.421875 -9.6875 L 12.421875 -1.515625 C 12.421875 -1.328125 12.460938 -1.195312 12.546875 -1.125 C 12.640625 -1.050781 12.738281 -0.992188 12.84375 -0.953125 C 12.945312 -0.910156 13.046875 -0.859375 13.140625 -0.796875 C 13.234375 -0.742188 13.28125 -0.632812 13.28125 -0.46875 C 13.28125 -0.15625 13.0625 0 12.625 0 L 10.015625 0 C 9.578125 0 9.359375 -0.15625 9.359375 -0.46875 C 9.359375 -0.632812 9.398438 -0.742188 9.484375 -0.796875 C 9.566406 -0.859375 9.660156 -0.910156 9.765625 -0.953125 C 9.878906 -0.992188 9.984375 -1.050781 10.078125 -1.125 C 10.171875 -1.195312 10.21875 -1.328125 10.21875 -1.515625 L 10.21875 -9.046875 L 10.1875 -9.046875 C 9.8125 -8.078125 9.46875 -7.21875 9.15625 -6.46875 C 8.851562 -5.71875 8.578125 -5.0625 8.328125 -4.5 C 8.085938 -3.945312 7.878906 -3.476562 7.703125 -3.09375 C 7.523438 -2.71875 7.382812 -2.410156 7.28125 -2.171875 C 7.175781 -1.960938 7.085938 -1.800781 7.015625 -1.6875 C 6.953125 -1.582031 6.894531 -1.503906 6.84375 -1.453125 C 6.789062 -1.410156 6.742188 -1.390625 6.703125 -1.390625 C 6.671875 -1.390625 6.632812 -1.390625 6.59375 -1.390625 C 6.582031 -1.390625 6.554688 -1.390625 6.515625 -1.390625 C 6.472656 -1.398438 6.414062 -1.429688 6.34375 -1.484375 C 6.28125 -1.535156 6.203125 -1.625 6.109375 -1.75 C 6.023438 -1.882812 5.921875 -2.078125 5.796875 -2.328125 C 5.722656 -2.492188 5.613281 -2.722656 5.46875 -3.015625 C 5.320312 -3.316406 5.160156 -3.660156 4.984375 -4.046875 C 4.804688 -4.429688 4.625 -4.847656 4.4375 -5.296875 C 4.25 -5.742188 4.0625 -6.1875 3.875 -6.625 C 3.695312 -7.070312 3.53125 -7.503906 3.375 -7.921875 C 3.21875 -8.335938 3.09375 -8.710938 3 -9.046875 L 2.96875 -9.046875 L 2.8125 -1.625 C 2.8125 -1.414062 2.867188 -1.269531 2.984375 -1.1875 C 3.109375 -1.101562 3.242188 -1.035156 3.390625 -0.984375 C 3.535156 -0.929688 3.664062 -0.875 3.78125 -0.8125 C 3.90625 -0.75 3.96875 -0.625 3.96875 -0.4375 C 3.96875 -0.257812 3.890625 -0.140625 3.734375 -0.078125 C 3.578125 -0.0234375 3.421875 0 3.265625 0 L 0.8125 0 C 0.476562 0 0.3125 -0.160156 0.3125 -0.484375 C 0.3125 -0.648438 0.363281 -0.753906 0.46875 -0.796875 C 0.570312 -0.835938 0.6875 -0.882812 0.8125 -0.9375 C 0.9375 -0.988281 1.050781 -1.066406 1.15625 -1.171875 C 1.269531 -1.273438 1.335938 -1.460938 1.359375 -1.734375 C 1.390625 -2.285156 1.453125 -3.234375 1.546875 -4.578125 C 1.648438 -5.929688 1.703125 -7.628906 1.703125 -9.671875 C 1.703125 -9.921875 1.640625 -10.082031 1.515625 -10.15625 C 1.390625 -10.238281 1.25 -10.296875 1.09375 -10.328125 C 0.9375 -10.359375 0.796875 -10.398438 0.671875 -10.453125 C 0.554688 -10.503906 0.5 -10.632812 0.5 -10.84375 C 0.5 -11.019531 0.550781 -11.144531 0.65625 -11.21875 C 0.769531 -11.289062 0.875 -11.328125 0.96875 -11.328125 Z M 4.046875 -11.328125 "/></g></g></g><g fill="#313131" fill-opacity="1"><g transform="translate(85.708972, 18.679488)"><g><path d="M 4.625 -6.71875 C 4.300781 -6.71875 4.007812 -6.644531 3.75 -6.5 C 3.488281 -6.351562 3.265625 -6.148438 3.078125 -5.890625 C 2.890625 -5.640625 2.75 -5.332031 2.65625 -4.96875 C 2.5625 -4.601562 2.515625 -4.207031 2.515625 -3.78125 L 2.515625 -3.6875 C 2.847656 -3.71875 3.207031 -3.773438 3.59375 -3.859375 C 3.976562 -3.941406 4.328125 -4.050781 4.640625 -4.1875 C 4.960938 -4.332031 5.226562 -4.519531 5.4375 -4.75 C 5.65625 -4.988281 5.765625 -5.28125 5.765625 -5.625 C 5.765625 -5.9375 5.671875 -6.195312 5.484375 -6.40625 C 5.304688 -6.613281 5.019531 -6.71875 4.625 -6.71875 Z M 0.375 -3.515625 C 0.375 -4.066406 0.457031 -4.585938 0.625 -5.078125 C 0.800781 -5.578125 1.070312 -6.007812 1.4375 -6.375 C 1.800781 -6.738281 2.257812 -7.023438 2.8125 -7.234375 C 3.363281 -7.453125 4.015625 -7.5625 4.765625 -7.5625 C 5.097656 -7.5625 5.4375 -7.519531 5.78125 -7.4375 C 6.132812 -7.363281 6.457031 -7.238281 6.75 -7.0625 C 7.050781 -6.894531 7.296875 -6.675781 7.484375 -6.40625 C 7.671875 -6.132812 7.765625 -5.804688 7.765625 -5.421875 C 7.765625 -4.929688 7.601562 -4.53125 7.28125 -4.21875 C 6.957031 -3.90625 6.539062 -3.648438 6.03125 -3.453125 C 5.53125 -3.265625 4.976562 -3.125 4.375 -3.03125 C 3.769531 -2.9375 3.1875 -2.875 2.625 -2.84375 C 2.675781 -2.539062 2.769531 -2.269531 2.90625 -2.03125 C 3.050781 -1.789062 3.222656 -1.585938 3.421875 -1.421875 C 3.628906 -1.265625 3.847656 -1.144531 4.078125 -1.0625 C 4.304688 -0.988281 4.539062 -0.953125 4.78125 -0.953125 C 5.039062 -0.953125 5.28125 -0.976562 5.5 -1.03125 C 5.71875 -1.09375 5.914062 -1.171875 6.09375 -1.265625 C 6.269531 -1.359375 6.429688 -1.457031 6.578125 -1.5625 C 6.722656 -1.675781 6.851562 -1.785156 6.96875 -1.890625 C 7.070312 -1.992188 7.164062 -2.070312 7.25 -2.125 C 7.332031 -2.1875 7.429688 -2.21875 7.546875 -2.21875 C 7.773438 -2.21875 7.890625 -2.097656 7.890625 -1.859375 C 7.890625 -1.671875 7.789062 -1.457031 7.59375 -1.21875 C 7.40625 -0.976562 7.144531 -0.757812 6.8125 -0.5625 C 6.476562 -0.363281 6.097656 -0.191406 5.671875 -0.046875 C 5.242188 0.0859375 4.789062 0.15625 4.3125 0.15625 C 3.757812 0.15625 3.242188 0.0625 2.765625 -0.125 C 2.285156 -0.3125 1.863281 -0.566406 1.5 -0.890625 C 1.144531 -1.210938 0.867188 -1.597656 0.671875 -2.046875 C 0.472656 -2.492188 0.375 -2.984375 0.375 -3.515625 Z M 0.375 -3.515625 "/></g></g></g><g fill="#313131" fill-opacity="1"><g transform="translate(94.393454, 18.679488)"><g><path d="M 4.625 -6.71875 C 4.300781 -6.71875 4.007812 -6.644531 3.75 -6.5 C 3.488281 -6.351562 3.265625 -6.148438 3.078125 -5.890625 C 2.890625 -5.640625 2.75 -5.332031 2.65625 -4.96875 C 2.5625 -4.601562 2.515625 -4.207031 2.515625 -3.78125 L 2.515625 -3.6875 C 2.847656 -3.71875 3.207031 -3.773438 3.59375 -3.859375 C 3.976562 -3.941406 4.328125 -4.050781 4.640625 -4.1875 C 4.960938 -4.332031 5.226562 -4.519531 5.4375 -4.75 C 5.65625 -4.988281 5.765625 -5.28125 5.765625 -5.625 C 5.765625 -5.9375 5.671875 -6.195312 5.484375 -6.40625 C 5.304688 -6.613281 5.019531 -6.71875 4.625 -6.71875 Z M 0.375 -3.515625 C 0.375 -4.066406 0.457031 -4.585938 0.625 -5.078125 C 0.800781 -5.578125 1.070312 -6.007812 1.4375 -6.375 C 1.800781 -6.738281 2.257812 -7.023438 2.8125 -7.234375 C 3.363281 -7.453125 4.015625 -7.5625 4.765625 -7.5625 C 5.097656 -7.5625 5.4375 -7.519531 5.78125 -7.4375 C 6.132812 -7.363281 6.457031 -7.238281 6.75 -7.0625 C 7.050781 -6.894531 7.296875 -6.675781 7.484375 -6.40625 C 7.671875 -6.132812 7.765625 -5.804688 7.765625 -5.421875 C 7.765625 -4.929688 7.601562 -4.53125 7.28125 -4.21875 C 6.957031 -3.90625 6.539062 -3.648438 6.03125 -3.453125 C 5.53125 -3.265625 4.976562 -3.125 4.375 -3.03125 C 3.769531 -2.9375 3.1875 -2.875 2.625 -2.84375 C 2.675781 -2.539062 2.769531 -2.269531 2.90625 -2.03125 C 3.050781 -1.789062 3.222656 -1.585938 3.421875 -1.421875 C 3.628906 -1.265625 3.847656 -1.144531 4.078125 -1.0625 C 4.304688 -0.988281 4.539062 -0.953125 4.78125 -0.953125 C 5.039062 -0.953125 5.28125 -0.976562 5.5 -1.03125 C 5.71875 -1.09375 5.914062 -1.171875 6.09375 -1.265625 C 6.269531 -1.359375 6.429688 -1.457031 6.578125 -1.5625 C 6.722656 -1.675781 6.851562 -1.785156 6.96875 -1.890625 C 7.070312 -1.992188 7.164062 -2.070312 7.25 -2.125 C 7.332031 -2.1875 7.429688 -2.21875 7.546875 -2.21875 C 7.773438 -2.21875 7.890625 -2.097656 7.890625 -1.859375 C 7.890625 -1.671875 7.789062 -1.457031 7.59375 -1.21875 C 7.40625 -0.976562 7.144531 -0.757812 6.8125 -0.5625 C 6.476562 -0.363281 6.097656 -0.191406 5.671875 -0.046875 C 5.242188 0.0859375 4.789062 0.15625 4.3125 0.15625 C 3.757812 0.15625 3.242188 0.0625 2.765625 -0.125 C 2.285156 -0.3125 1.863281 -0.566406 1.5 -0.890625 C 1.144531 -1.210938 0.867188 -1.597656 0.671875 -2.046875 C 0.472656 -2.492188 0.375 -2.984375 0.375 -3.515625 Z M 0.375 -3.515625 "/></g></g></g><g fill="#313131" fill-opacity="1"><g transform="translate(103.077936, 18.679488)"><g><path d="M 0.046875 -6.90625 C 0.046875 -7.132812 0.132812 -7.269531 0.3125 -7.3125 C 0.488281 -7.351562 0.6875 -7.382812 0.90625 -7.40625 C 1.195312 -7.425781 1.429688 -7.503906 1.609375 -7.640625 C 1.785156 -7.773438 1.925781 -7.941406 2.03125 -8.140625 C 2.144531 -8.347656 2.226562 -8.566406 2.28125 -8.796875 C 2.34375 -9.023438 2.398438 -9.234375 2.453125 -9.421875 C 2.503906 -9.609375 2.554688 -9.765625 2.609375 -9.890625 C 2.671875 -10.023438 2.757812 -10.09375 2.875 -10.09375 C 3 -10.09375 3.097656 -10.054688 3.171875 -9.984375 C 3.242188 -9.921875 3.28125 -9.769531 3.28125 -9.53125 L 3.28125 -7.40625 L 4.578125 -7.40625 C 4.953125 -7.40625 5.140625 -7.238281 5.140625 -6.90625 C 5.140625 -6.570312 4.953125 -6.40625 4.578125 -6.40625 L 3.28125 -6.40625 L 3.28125 -1.875 C 3.28125 -1.601562 3.328125 -1.40625 3.421875 -1.28125 C 3.523438 -1.15625 3.644531 -1.070312 3.78125 -1.03125 C 3.925781 -0.988281 4.082031 -0.96875 4.25 -0.96875 C 4.414062 -0.976562 4.566406 -0.976562 4.703125 -0.96875 C 4.847656 -0.957031 4.96875 -0.925781 5.0625 -0.875 C 5.164062 -0.820312 5.21875 -0.710938 5.21875 -0.546875 C 5.21875 -0.179688 5.046875 0 4.703125 0 L 2.40625 0 C 1.957031 0 1.65625 -0.0625 1.5 -0.1875 C 1.34375 -0.3125 1.265625 -0.5625 1.265625 -0.9375 L 1.265625 -6.40625 C 0.847656 -6.382812 0.539062 -6.390625 0.34375 -6.421875 C 0.144531 -6.460938 0.046875 -6.625 0.046875 -6.90625 Z M 0.046875 -6.90625 "/></g></g></g></svg>